<?xml version="1.0" standalone="no"?>
<!DOCTYPE svg PUBLIC "-//W3C//DTD SVG 20010904//EN"
 "http://www.w3.org/TR/2001/REC-SVG-20010904/DTD/svg10.dtd">
<svg version="1.0" xmlns="http://www.w3.org/2000/svg"
 width="407.000000pt" height="407.000000pt" viewBox="0 0 407.000000 407.000000"
 preserveAspectRatio="xMidYMid meet">
<metadata>
Created by potrace 1.14, written by Peter Selinger 2001-2017
</metadata>
<g transform="translate(0.000000,407.000000) scale(0.100000,-0.100000)"
fill="#000000" stroke="none">
<path d="M635 3880 c4 -12 15 -50 25 -84 10 -33 92 -300 183 -593 l164 -532
-36 -14 c-20 -8 -162 -61 -316 -117 -154 -56 -283 -105 -287 -109 -4 -3 7 -22
25 -41 18 -19 66 -73 107 -120 41 -47 78 -87 81 -90 5 -4 119 -132 191 -215
15 -16 27 -34 27 -40 -1 -9 -649 -678 -707 -729 -13 -12 -28 -29 -34 -40 -9
-17 -5 -18 89 -12 96 7 137 9 413 21 74 3 164 8 200 10 36 3 128 7 205 10 77
3 155 8 173 10 28 4 32 1 28 -13 -3 -9 -8 -46 -11 -82 -4 -36 -8 -72 -10 -80
-3 -18 -13 -106 -20 -175 -3 -27 -12 -104 -20 -170 -15 -125 -22 -179 -31
-255 -2 -25 -9 -81 -14 -125 -6 -44 -10 -85 -10 -93 0 -14 99 60 675 504 94
72 183 139 198 148 l27 18 327 -325 c203 -201 330 -321 334 -314 4 7 10 30 13
52 4 22 11 65 16 95 5 30 11 72 14 92 3 21 10 57 15 80 5 24 12 61 16 83 13
87 76 459 78 461 2 2 501 14 628 15 l77 1 -40 101 c-22 56 -76 196 -121 311
l-81 209 23 16 c22 15 432 246 576 325 33 18 91 50 128 71 l69 38 -274 108
c-150 60 -344 137 -430 171 -158 61 -169 69 -148 106 5 9 80 177 166 372 86
195 164 371 172 390 9 19 16 37 17 40 1 3 9 21 18 41 61 135 85 194 82 197 -3
3 -65 -26 -290 -133 -66 -31 -185 -88 -265 -125 -80 -37 -194 -91 -255 -120
-60 -29 -151 -72 -201 -95 l-91 -42 -178 273 c-97 151 -181 274 -185 274 -4 0
-37 -33 -71 -72 -35 -40 -68 -78 -74 -84 -5 -6 -75 -83 -154 -172 -82 -92
-149 -159 -155 -155 -16 9 -189 126 -201 136 -5 5 -170 119 -365 254 -195 135
-390 270 -433 300 -64 45 -78 51 -72 33z m635 -545 c239 -166 441 -305 449
-309 9 -6 25 4 50 31 35 39 139 156 172 195 25 28 139 156 176 197 18 19 34
33 36 31 2 -3 77 -119 167 -257 90 -139 167 -253 171 -253 7 0 299 136 629
293 253 120 312 146 307 134 -11 -27 -231 -526 -257 -582 -15 -33 -39 -87 -53
-120 -14 -33 -41 -95 -61 -138 -20 -42 -36 -79 -36 -81 0 -2 168 -70 373 -151
204 -81 375 -151 380 -154 4 -4 -145 -92 -330 -196 -186 -103 -339 -189 -341
-190 -1 -1 47 -130 107 -286 61 -156 109 -284 108 -286 -2 -1 -145 -5 -318 -9
-173 -3 -316 -8 -318 -10 -4 -3 -18 -75 -27 -134 -3 -19 -16 -96 -29 -170 -14
-74 -26 -146 -28 -160 -3 -14 -15 -89 -28 -167 l-23 -142 -269 267 c-149 147
-281 279 -296 293 l-26 27 -240 -184 c-132 -101 -303 -232 -379 -292 -145
-111 -172 -131 -164 -116 3 5 9 41 13 79 4 39 9 86 11 105 3 19 7 53 9 75 3
22 7 56 10 75 4 37 12 106 20 180 3 25 7 61 10 80 4 34 9 72 20 170 3 25 8 62
11 84 l6 38 -138 -6 c-77 -4 -170 -9 -209 -11 -79 -5 -215 -12 -415 -21 -74
-3 -157 -7 -183 -9 -27 -2 -46 0 -42 3 67 65 641 656 643 662 2 4 -7 19 -20
33 -13 14 -50 55 -83 93 -33 37 -64 72 -70 78 -5 6 -44 49 -85 96 -41 47 -92
103 -112 125 -20 22 -36 40 -35 42 2 1 133 50 292 109 160 58 293 109 297 113
4 3 -58 218 -138 476 -188 609 -175 567 -161 558 6 -4 207 -142 447 -308z"/>
<path d="M1435 2856 c2 -12 4 -22 6 -23 1 -2 2 -6 4 -10 1 -5 5 -15 8 -23 13
-29 30 -75 31 -80 1 -3 4 -9 7 -15 5 -8 30 -76 34 -95 1 -3 7 -18 14 -35 7
-16 28 -70 48 -120 19 -49 36 -92 38 -95 2 -3 -34 -86 -80 -185 l-83 -180 72
-3 c79 -3 120 4 111 19 -4 5 -2 15 3 22 5 7 23 55 41 107 17 52 35 104 40 115
5 11 16 38 25 60 l15 40 2 -60 c0 -33 2 -114 3 -181 l1 -121 75 2 c41 1 77 3
80 4 5 1 5 32 0 278 -1 61 1 116 4 122 4 6 4 11 -1 11 -4 0 -8 106 -7 235 l0
236 -75 -3 -76 -3 -2 -106 c-2 -98 -4 -112 -33 -170 l-32 -63 -50 150 c-27 82
-50 154 -52 161 -4 24 -18 28 -97 29 -75 1 -78 0 -74 -20z"/>
<path d="M2023 2435 l0 -445 78 0 77 0 -1 108 c0 102 1 110 33 172 18 36 34
61 36 55 1 -5 26 -83 54 -172 l51 -163 84 0 84 0 -28 78 c-16 42 -60 161 -98
263 l-69 186 82 179 81 179 -75 3 c-41 2 -80 1 -87 -1 -6 -3 -40 -84 -75 -181
-35 -96 -65 -174 -67 -173 -1 2 -3 83 -4 180 l-1 177 -78 0 -77 0 0 -445z"/>
<path d="M1379 1788 c0 -7 -1 -62 -2 -123 -1 -96 1 -110 16 -113 14 -3 17 4
17 35 0 21 7 46 14 56 13 16 16 13 31 -38 17 -54 19 -55 55 -55 32 0 39 4 44
25 5 18 13 25 31 25 18 0 26 -7 31 -25 7 -29 45 -36 38 -7 -2 9 -12 53 -23 97
-10 44 -22 93 -25 108 -8 32 -37 34 -42 3 -1 -10 -8 -41 -15 -70 -7 -28 -14
-53 -14 -56 -1 -3 -5 -22 -9 -43 -8 -37 -26 -61 -26 -35 0 7 -11 38 -24 69
l-23 56 24 48 c28 58 27 55 6 55 -12 0 -27 -20 -45 -58 l-26 -57 -1 58 c-1 44
-4 57 -16 57 -8 0 -15 -6 -16 -12z m220 -115 c8 -41 8 -43 -14 -43 -21 0 -23
3 -15 30 10 34 10 34 11 58 1 21 6 9 18 -45z"/>
<path d="M1680 1675 c0 -104 2 -125 15 -125 16 0 17 4 18 63 0 34 3 37 28 37
40 0 59 24 59 75 0 56 -19 75 -76 75 l-44 0 0 -125z m84 50 c0 -36 -2 -40 -25
-43 -25 -3 -26 -1 -24 40 3 53 1 50 27 46 19 -2 22 -9 22 -43z"/>
<path d="M1829 1788 c0 -7 -1 -62 -2 -123 -1 -96 1 -110 16 -113 14 -3 17 5
17 47 0 49 1 51 28 51 16 0 36 8 45 18 23 26 22 94 -1 115 -22 20 -102 23
-103 5z m79 -60 c-2 -36 -7 -44 -25 -46 -21 -3 -23 1 -23 42 0 43 2 46 26 46
23 0 25 -3 22 -42z"/>
<path d="M1975 1678 c0 -103 2 -123 15 -123 12 0 15 22 18 123 2 112 1 122
-15 122 -17 0 -19 -11 -18 -122z"/>
<path d="M2128 1789 c-15 -8 -18 -25 -18 -109 0 -107 10 -130 55 -130 45 0 55
23 55 125 0 72 -4 97 -16 109 -18 18 -51 20 -76 5z m49 -27 c7 -4 10 -37 9
-92 -1 -70 -4 -85 -18 -88 -22 -4 -27 19 -24 103 4 95 4 95 33 77z"/>
<path d="M2273 1788 c-19 -24 -23 -64 -9 -83 12 -16 11 -21 -1 -34 -18 -17
-11 -100 10 -113 23 -15 66 -8 80 12 16 24 15 102 -2 108 -8 3 -9 8 -2 16 17
21 20 63 5 85 -17 24 -66 29 -81 9z m55 -57 c-3 -30 -31 -36 -36 -8 -6 28 5
47 23 41 10 -4 15 -16 13 -33z m0 -103 c-4 -52 -29 -59 -39 -11 -6 33 4 53 29
53 9 0 12 -12 10 -42z"/>
<path d="M2402 1788 c-7 -7 -12 -21 -12 -32 0 -16 3 -17 12 -8 7 7 15 12 18
12 3 0 5 -47 5 -105 -1 -90 2 -105 15 -103 12 3 15 25 17 126 2 121 2 122 -20
122 -13 0 -28 -5 -35 -12z"/>
<path d="M2495 1743 c1 -70 12 -95 31 -68 23 31 41 12 39 -42 -1 -36 -5 -49
-18 -51 -9 -2 -20 4 -23 12 -9 23 -34 20 -34 -4 0 -39 76 -55 97 -21 14 23 15
108 1 134 -5 9 -20 17 -33 17 -20 0 -25 5 -25 25 0 22 4 25 33 25 23 0 34 5
34 15 0 11 -13 15 -52 15 l-51 0 1 -57z"/>
<path d="M1396 1374 c-9 -8 -16 -21 -17 -27 -5 -71 -3 -147 4 -170 17 -51 99
-46 109 7 4 20 1 26 -13 26 -11 0 -19 -3 -19 -7 -1 -19 -18 -33 -33 -27 -14 5
-17 21 -17 89 0 76 2 83 21 88 15 4 23 0 26 -14 8 -28 33 -24 33 6 0 41 -63
61 -94 29z"/>
<path d="M2067 1383 c-7 -13 0 -219 7 -232 9 -14 43 -15 51 -1 3 6 -1 13 -9
16 -13 5 -16 26 -16 115 0 88 -3 109 -14 109 -8 0 -17 -3 -19 -7z"/>
<path d="M2233 1375 c0 -8 9 -15 19 -15 10 0 18 7 18 15 0 8 -8 15 -18 15 -10
0 -19 -7 -19 -15z"/>
<path d="M2150 1345 c0 -14 -4 -25 -10 -25 -5 0 -10 -7 -10 -15 0 -8 5 -15 10
-15 6 0 10 -28 10 -63 0 -65 11 -87 42 -87 21 0 24 25 5 33 -19 7 -20 106 -1
114 19 7 18 33 -1 33 -9 0 -15 6 -14 13 3 26 -2 37 -16 37 -9 0 -15 -9 -15
-25z"/>
<path d="M1532 1308 c-18 -18 -15 -133 4 -152 20 -20 58 -21 74 -1 16 20 16
131 0 150 -15 18 -61 20 -78 3z m58 -79 c0 -27 -4 -49 -10 -49 -5 0 -13 -1
-17 -2 -8 -3 -13 91 -6 104 2 4 10 5 18 1 10 -3 15 -20 15 -54z"/>
<path d="M1654 1229 c0 -79 2 -89 17 -89 15 0 19 11 21 73 2 56 6 72 18 72 12
0 16 -16 18 -73 2 -63 5 -73 20 -70 14 3 17 16 18 73 1 94 -4 103 -64 103
l-48 0 0 -89z"/>
<path d="M1806 1305 c-9 -9 -16 -25 -16 -35 0 -21 37 -60 57 -60 7 0 13 -9 13
-20 0 -21 -24 -28 -35 -10 -8 13 -35 13 -35 1 0 -18 31 -41 54 -41 13 0 31 9
41 20 26 29 13 67 -30 84 -25 11 -33 19 -29 30 7 19 9 19 34 4 24 -15 38 -3
24 20 -15 23 -58 27 -78 7z"/>
<path d="M1923 1242 c2 -42 6 -82 10 -89 4 -6 27 -11 52 -11 l45 0 0 89 c0 80
-2 89 -18 89 -16 0 -18 -8 -17 -65 1 -71 -7 -97 -25 -79 -6 6 -11 41 -12 77
-1 58 -4 67 -20 67 -16 0 -18 -8 -15 -78z"/>
<path d="M2234 1230 c1 -79 3 -90 18 -90 16 0 18 11 18 90 0 80 -2 90 -18 90
-17 0 -18 -9 -18 -90z"/>
<path d="M2304 1230 c0 -80 3 -90 18 -90 16 0 18 10 18 69 0 69 11 94 32 73 6
-6 10 -40 9 -76 -1 -59 0 -66 17 -66 17 0 19 8 17 80 -1 44 -5 83 -9 87 -3 4
-28 8 -54 9 l-47 3 -1 -89z"/>
<path d="M2460 1305 c-17 -21 -17 -130 0 -150 8 -10 23 -15 36 -12 29 5 39
-17 17 -39 -15 -14 -17 -14 -25 0 -11 19 -38 21 -38 3 0 -37 65 -51 92 -19 11
13 15 42 14 122 l-1 105 -41 2 c-28 2 -46 -3 -54 -12z m55 -27 c19 -51 3 -121
-23 -104 -13 8 -17 98 -5 109 10 11 23 8 28 -5z"/>
</g>
</svg>
